<?xml version="1.0" encoding="utf-8"?>
<!-- Generator: Adobe Illustrator 18.1.0, SVG Export Plug-In . SVG Version: 6.00 Build 0)  -->
<svg version="1.1" id="Layer_1" xmlns="http://www.w3.org/2000/svg" xmlns:xlink="http://www.w3.org/1999/xlink" x="0px" y="0px"
	 viewBox="0 0 252.8 227" enable-background="new 0 0 252.8 227" xml:space="preserve">
<g>
	<defs>
		<path id="SVGID_1_" d="M126.1,37.5c0,0-49.8-77.3-113.1-9.9c0,0-32.2,51.4,4.5,95.8C59.2,173.5,126.7,227,126.7,227
			s96.1-79.3,109.7-104.6c18.5-34.3,30.2-75.7-14.4-109.8c-10.6-8.1-5.1-3.6-5.1-3.6s-23.3-20.8-63.2,2.5
			C153.6,11.5,141.4,15.3,126.1,37.5z"/>
	</defs>
	<clipPath id="SVGID_2_">
		<use xlink:href="#SVGID_1_"  overflow="visible"/>
	</clipPath>
	<g clip-path="url(#SVGID_2_)">
		<polyline fill="#DF2259" points="128.2,41.5 160.9,59.9 143.8,4.4 124.9,39.3 		"/>
		<polygon fill="#EE5294" points="143.8,4.4 176.5,-12.9 188.9,12.5 		"/>
		<polyline fill="#B2345B" points="144.8,4.2 189.3,12.4 160.6,59.6 143.8,4.4 		"/>
		<polygon fill="#CC3171" points="161.4,60.2 165.3,102.2 125.1,38.3 		"/>
		<polygon fill="#ED3E74" points="165.3,102.2 220.9,62.1 160.6,59.6 		"/>
		<polygon fill="#AD305E" points="160.6,59.6 190.1,41.6 220.4,62.2 		"/>
		<polygon fill="#D14377" points="189.3,12.4 190.8,42.3 160.6,59.6 		"/>
		<polygon fill="#ED3E74" points="176.5,-12.9 203.9,-16.7 188.9,12.5 		"/>
		<polyline fill="#991B41" points="204.9,-16.7 230.5,-2.9 188.9,12.5 203.9,-16.7 		"/>
		<polygon fill="#D52758" points="230.5,-2.9 228.7,41.1 188.9,12.5 		"/>
		<polygon fill="#AC1D45" points="189.3,12.4 229.2,41.3 220.4,62.2 		"/>
		<polygon fill="#CC3766" points="189.3,12.4 190.1,41.8 220.7,62.6 		"/>
		<polygon fill="#881840" points="229.2,41.3 257.1,85.3 261.6,56.6 		"/>
		<polygon fill="#CF3E73" points="228.7,41.1 261.6,56.6 258.1,31 		"/>
		<polygon fill="#C02457" points="230.5,-2.9 258.1,31 228.6,41.5 		"/>
		<polygon fill="#962F5A" points="229.2,41.3 220.4,62.2 257.1,85.3 		"/>
		<polygon fill="#B23662" points="220.4,62.2 219,99 257.1,85.3 		"/>
		<polyline fill="#962A4C" points="219.4,63.4 185.5,116.3 219.8,99.2 220.4,62.2 		"/>
		<polygon fill="#CC3766" points="220.4,62.2 164.4,102.8 185.5,116.3 		"/>
		<polygon fill="#CC3766" points="162.4,100.1 162.6,154.8 185.8,145.5 		"/>
		<polygon fill="#B23065" points="185.8,145.5 186,115.9 182,113.6 162.4,100.1 		"/>
		<polygon fill="#9D1D50" points="186,115.9 185.8,145.5 213.9,151.6 		"/>
		<polygon fill="#B73765" points="186,115.9 219.4,99.1 213.9,151.6 		"/>
		<polygon fill="#962F5A" points="218.7,98.7 257.1,85.3 242.5,114.9 		"/>
		<polygon fill="#962A4C" points="219.5,98.7 242.5,114.9 213.9,151.6 		"/>
		<polyline fill="#881840" points="185.8,145.5 213.9,151.6 182.3,180.6 186,146.5 182.3,180.6 163.3,154.4 		"/>
		<polygon fill="#B23662" points="163.4,154.1 142.5,183.9 182.3,180.6 		"/>
		<polyline fill="#962F5A" points="142.3,183.1 154.9,204.1 182.8,180.4 143.8,183.1 		"/>
		<polygon fill="#962A4C" points="101.9,189.5 124.3,228.4 154.9,204.1 		"/>
		<polygon fill="#881840" points="101.1,189.5 142.3,183.1 154.9,204.1 		"/>
		<polygon fill="#BA245C" points="101.9,189.5 134,148.3 142.8,183.1 		"/>
		<polygon fill="#CC3171" points="133.3,148.1 163.4,154.1 142.8,183.5 		"/>
		<polygon fill="#D52758" points="133,148.4 162.4,100.1 162.9,154.3 		"/>
		<polyline fill="#B73765" points="82.2,190.5 101.9,189.5 124.5,228.4 76,191.2 		"/>
		<polygon fill="#AC1D45" points="84.4,166 76.8,191.5 101.9,189.5 		"/>
		<polygon fill="#CC3766" points="84.6,166.9 134,148.3 101.9,189.5 		"/>
		<polygon fill="#962F5A" points="59.7,176.2 84.2,167 76.8,191.7 		"/>
		<polygon fill="#B23065" points="63.5,136.2 59.7,176.2 84.6,166.9 		"/>
		<polygon fill="#F75791" points="59.5,101.9 84.6,166.9 63.5,136.2 		"/>
		<polygon fill="#ED3E74" points="59.5,101.9 105.8,125.5 84.6,166.9 		"/>
		<polygon fill="#962F5A" points="105.8,124.8 134,148.3 84.6,166.9 		"/>
		<polygon fill="#ED3E74" points="105.4,125.2 122.7,75.2 133.3,148.1 		"/>
		<polygon fill="#CF3E73" points="122.7,75.8 162.4,100.1 133.1,148.9 		"/>
		<polygon fill="#C8235A" points="124.3,35.6 122.7,75.8 165.3,102.2 		"/>
		<polygon fill="#B2345B" points="59.6,101.4 29.3,144 63.5,136.2 		"/>
		<polygon fill="#962A4C" points="29.3,144 63.7,135.9 59.7,176.2 		"/>
		<polygon fill="#CF3E73" points="28.7,107.6 59.5,101.9 29.3,144 		"/>
		<polygon fill="#B23662" points="30.7,80.3 29.6,108.1 59.5,101.9 		"/>
		<polyline fill="#D14377" points="51.4,66.4 94.1,68.6 59.5,102.3 30.2,80 51.4,66.4 59,101.1 		"/>
		<polygon fill="#CC3766" points="94.1,68.6 100.3,97.2 59.5,102.3 		"/>
		<polyline fill="#DF2259" points="100.3,97.2 60.1,102.3 105.4,125.2 101.3,100.7 		"/>
		<polygon fill="#CC3766" points="100.3,97.2 122.7,75.2 105.4,125.2 		"/>
		<polygon fill="#881840" points="29.5,107.3 29.3,144 -1.1,99.3 		"/>
		<polygon fill="#962F5A" points="30,107.6 -8.8,65.9 -1.1,99.3 		"/>
		<polygon fill="#C02457" points="-8.8,66.4 24.6,32.2 31.1,80.5 		"/>
		<polygon fill="#EE5294" points="-8.3,66.4 30.9,79.9 29.5,107.3 		"/>
		<polygon fill="#AC1D45" points="24.8,32.8 50.7,66.9 30.9,79.9 		"/>
		<polygon fill="#962A4C" points="24.6,32.2 -3.8,23.5 -8.8,66.4 		"/>
		<polygon fill="#C02457" points="-3.8,23.5 19,-4.6 24.6,32.2 		"/>
		<polygon fill="#EE5294" points="19,-4.6 56,-16.2 24.8,32.8 		"/>
		<path fill="none" stroke="#FFFFFF" stroke-width="0.25" stroke-miterlimit="10" d="M26.1,33.5"/>
		<polygon fill="#C02457" points="56,-16.2 75.5,-12.4 60.5,20.7 		"/>
		<polyline fill="#F290BB" points="24.8,32.8 56,-16.2 60.5,20.7 26.1,33.5 		"/>
		<polygon fill="#DB3E78" points="75.5,-12.4 103.2,2.7 60.5,20.7 		"/>
		<polygon fill="#AC1D45" points="103.2,2.7 125.3,37.4 88.8,37.6 		"/>
		<polygon fill="#C02457" points="60.5,20.7 103.2,2.7 88.8,37.6 		"/>
		<polygon fill="#CC3766" points="24.6,33.3 60.5,20.7 50.7,66.9 		"/>
		<polygon fill="#D14377" points="60.5,20.7 88.8,37.6 50.7,66.9 		"/>
		<polygon fill="#CC3171" points="88.8,37.6 125.1,37.2 123.1,75.9 		"/>
		<polyline fill="#EE5294" points="88.9,40.8 94.4,70.3 122.7,75.2 88.8,37.6 		"/>
		<path fill="none" stroke="#FFFFFF" stroke-width="0.25" stroke-miterlimit="10" d="M88.1,41.3"/>
		<polygon fill="#B23662" points="94.2,69.7 122.7,75.2 100.3,97.2 		"/>
		<polyline fill="#CC3766" points="55.8,63.1 88.8,37.6 94.4,70 51.4,66.4 		"/>
	</g>
</g>
</svg>
